#!OML:ASF X:\für Bonn\!DataBase\2005_08_12_Daniel\c3d\Daniel.ASF
:FULLY-SPECIFIED
:DEGREES
113
root 20.1267 19.4335 0.713166 -19.2155 84.1675 -374.015
lowerback 30.9581 -1.08532 4.44165
upperback 4.34254 0.232352 -2.29283
thorax -11.3178 0.103777 -4.9838
lowerneck 8.41264 1.73241 -6.75981
upperneck 10.4148 2.16844 0.928101
head 1.79908 1.00047 1.41749
rclavicle 6.55989e-015 -6.36111e-015
rhumerus 16.2222 27.0635 -84.3248
rradius 43.8429
rwrist 11.2523
rhand -20.8892 16.6175
rfingers 7.12502
rthumb 5.48136 -13.2917
lclavicle 6.55989e-015 -6.36111e-015
lhumerus 12.0629 -26.5872 81.6254
lradius 56.8061
lwrist 0.444837
lhand -8.75385 -7.34227
lfingers 7.12502
lthumb 17.1834 21.9179
rfemur -21.9015 -2.94416 23.818
rtibia 39.1091
rfoot 12.6963 -2.95682
rtoes -19.6306
lfemur -21.7609 7.45046 -18.2955
ltibia 52.6205
lfoot 3.06665 -6.93051
ltoes -13.7959
114
root 20.3398 19.2752 0.721528 -19.1892 84.4103 -374.392
lowerback 31.0758 -1.14596 4.4515
upperback 4.38851 0.175781 -2.24072
thorax -11.3212 0.0819639 -4.91164
lowerneck 8.04101 1.66091 -6.67738
upperneck 10.3034 2.09529 0.856684
head 1.82812 0.962643 1.38436
rclavicle -6.95746e-015 2.14687e-014
rhumerus 15.4228 26.3751 -85.0602
rradius 41.3877
rwrist 11.8469
rhand -20.7238 16.3593
rfingers 7.12502
rthumb 5.641 -13.5457
lclavicle -6.95746e-015 2.14687e-014
lhumerus 11.2253 -26.2779 82.3355
lradius 54.5018
lwrist -0.0995857
lhand -9.01763 -7.45133
lfingers 7.12502
lthumb 16.9295 21.8308
rfemur -22.427 -2.37072 23.6869
rtibia 36.4674
rfoot 13.2538 -4.27524
rtoes -20.5321
lfemur -23.0423 7.03687 -18.4634
ltibia 50.9994
lfoot 3.61694 -5.96417
ltoes -14.7982
115
root 20.5534 19.0955 0.730548 -19.0993 84.6423 -374.816
lowerback 31.0426 -1.20084 4.46629
upperback 4.41178 0.117076 -2.18671
thorax -11.2864 0.0571836 -4.83867
lowerneck 7.66806 1.60298 -6.60865
upperneck 10.1538 2.0366 0.78774
head 1.84437 0.93173 1.35366
rclavicle 6.36111e-015 -1.98785e-015
rhumerus 14.6013 25.6592 -85.8071
rradius 38.9504
rwrist 12.301
rhand -20.5467 15.9064
rfingers 7.12502
rthumb 5.81198 -13.9939
lclavicle 6.36111e-015 -1.98785e-015
lhumerus 10.355 -25.926 83.0634
lradius 52.2447
lwrist -0.594055
lhand -9.3694 -7.55417
lfingers 7.12502
lthumb 16.5908 21.7567
rfemur -23.1064 -1.70052 23.4966
rtibia 34.0951
rfoot 13.7735 -5.8069
rtoes -20.6345
lfemur -24.5721 6.63888 -18.6203
ltibia 49.5491
lfoot 4.20774 -4.96108
ltoes -15.6399
116
root 20.7644 18.8905 0.741042 -19.0175 84.8735 -375.245
lowerback 30.9534 -1.23744 4.44732
upperback 4.46154 0.0714868 -2.11373
thorax -11.1967 0.0423783 -4.73122
lowerneck 7.31424 1.52582 -6.46515
upperneck 9.96825 1.96012 0.617703
head 1.84743 0.893683 1.27672
rclavicle -7.35503e-015 4.77083e-015
rhumerus 13.7553 24.7062 -86.6534
rradius 36.515
rwrist 12.7816
rhand -20.5291 15.4315
rfingers 7.12502
rthumb 5.82899 -14.4683
lclavicle -7.35503e-015 4.77083e-015
lhumerus 9.54702 -25.5479 83.7822
lradius 50.0201
lwrist -0.981613
lhand -9.71806 -7.53455
lfingers 7.12502
lthumb 16.2551 21.804
rfemur -23.917 -1.01615 23.2279
rtibia 32.1021
rfoot 14.2084 -7.51165
rtoes -19.244
lfemur -26.1735 6.22819 -18.7548
ltibia 48.2995
lfoot 4.67663 -3.85992
ltoes -16.6645
117
root 20.9729 18.6628 0.751468 -18.7964 85.1094 -375.423
lowerback 31.0302 -1.28374 4.43243
upperback 4.50432 0.0211973 -2.07268
thorax -11.1858 0.0240518 -4.65978
lowerneck 6.93802 1.46105 -6.33209
upperneck 9.77211 1.8938 0.525861
head 1.84976 0.860986 1.22696
rclavicle -2.98177e-015 5.1684e-015
rhumerus 12.813 23.4512 -87.6582
rradius 34.1221
rwrist 13.3217
rhand -20.6243 15.081
rfingers 7.12502
rthumb 5.73713 -14.8214
lclavicle -2.98177e-015 5.1684e-015
lhumerus 8.71236 -25.1838 84.473
lradius 47.8843
lwrist -1.33869
lhand -10.0306 -7.42465
lfingers 7.12502
lthumb 15.9542 21.9383
rfemur -24.8195 -0.43349 22.9222
rtibia 30.5806
rfoot 14.4762 -9.16221
rtoes -17.2256
lfemur -27.6858 5.79492 -18.8756
ltibia 47.3036
lfoot 4.99632 -2.91928
ltoes -17.04
118
root 21.1741 18.4181 0.762833 -18.4336 85.3444 -375.219
lowerback 31.4119 -1.3323 4.32739
upperback 4.57125 -0.0364664 -2.00311
thorax -11.2758 0.00787952 -4.50683
lowerneck 6.36707 1.40003 -6.2174
upperneck 9.69054 1.85109 0.379483
head 1.9223 0.835951 1.16637
rclavicle -1.22253e-014 1.31198e-014
rhumerus 11.965 22.0572 -88.5919
rradius 31.733
rwrist 13.727
rhand -20.7043 14.752
rfingers 7.12502
rthumb 5.65983 -15.1524
lclavicle -1.22253e-014 1.31198e-014
lhumerus 7.7944 -24.6562 85.2498
lradius 45.8487
lwrist -1.87086
lhand -10.3115 -7.29963
lfingers 7.12502
lthumb 15.6837 22.0847
rfemur -25.7421 -0.10516 22.6599
rtibia 29.7077
rfoot 14.4009 -10.3064
rtoes -15.588
lfemur -29.0253 5.40394 -18.9862
ltibia 46.5867
lfoot 5.0682 -2.12371
ltoes -16.9231
119
root 21.3657 18.157 0.772829 -18.4496 85.566 -375.161
lowerback 32.0413 -1.40081 4.26556
upperback 4.67238 -0.0898114 -1.96197
thorax -11.4278 -0.00474176 -4.40964
lowerneck 5.70271 1.3189 -6.04409
upperneck 9.64875 1.7884 0.250519
head 2.025 0.801574 1.10294
rclavicle 7.35503e-015 1.03368e-014
rhumerus 11.1758 20.2343 -89.6409
rradius 29.332
rwrist 14.3105
rhand -20.8137 14.5421
rfingers 7.12502
rthumb 5.55419 -15.3651
lclavicle 7.35503e-015 1.03368e-014
lhumerus 6.84195 -24.0593 86.0277
lradius 43.8526
lwrist -2.52887
lhand -10.672 -7.22731
lfingers 7.12502
lthumb 15.3364 22.184
rfemur -26.7312 0.00398882 22.51
rtibia 29.6537
rfoot 13.6717 -10.8275
rtoes -14.5063
lfemur -30.3029 5.01952 -19.0467
ltibia 46.2026
lfoot 4.89177 -1.40329
ltoes -16.5388
120
root 21.552 17.8797 0.782783 -17.7717 85.7631 -374.228
lowerback 32.8632 -1.44619 4.11231
upperback 4.81048 -0.12892 -1.91798
thorax -11.6107 -0.00337058 -4.26522
lowerneck 5.05199 1.2527 -5.87824
upperneck 9.52897 1.74099 0.0899578
head 2.10013 0.774572 1.02939
rclavicle -1.22253e-014 1.59028e-015
rhumerus 10.4143 17.9074 -90.7503
rradius 27.0152
rwrist 15.2339
rhand -20.7785 14.4003
rfingers 7.12502
rthumb 5.58816 -15.506
lclavicle -1.22253e-014 1.59028e-015
lhumerus 5.87418 -23.2568 86.8678
lradius 41.8726
lwrist -3.45901
lhand -10.9688 -7.19801
lfingers 7.12502
lthumb 15.0506 22.2349
rfemur -27.7327 -0.00847594 22.3581
rtibia 30.5639
rfoot 11.8928 -10.7526
rtoes -12.9964
lfemur -31.4388 4.68293 -19.1351
ltibia 46.1714
lfoot 4.14068 -0.785766
ltoes -15.4185
121
root 21.7351 17.5946 0.791412 -17.4612 85.9613 -373.553
lowerback 33.8214 -1.52158 4.00481
upperback 4.97102 -0.181745 -1.88988
thorax -11.8167 -0.00683824 -4.15705
lowerneck 4.57023 1.20826 -5.71212
upperneck 9.18518 1.69849 -0.0423612
head 2.07239 0.753781 0.960349
rclavicle -9.24349e-015 3.26007e-014
rhumerus 9.76816 15.207 -91.8302
rradius 24.7405
rwrist 16.4346
rhand -20.7358 14.2123
rfingers 7.12502
rthumb 5.6294 -15.6929
lclavicle -9.24349e-015 3.26007e-014
lhumerus 4.98602 -22.3168 87.6245
lradius 39.8496
lwrist -4.61927
lhand -11.3 -7.38645
lfingers 7.12502
lthumb 14.7315 22.0701
rfemur -28.7809 -0.244297 22.3014
rtibia 32.4014
rfoot 9.45849 -10.1003
rtoes -10.8273
lfemur -32.4424 4.37216 -19.1905
ltibia 46.5547
lfoot 2.8287 -0.358501
ltoes -13.4479
122
root 21.917 17.3103 0.799626 -16.7388 86.1344 -372.354
lowerback 34.9637 -1.58991 3.8741
upperback 5.12457 -0.22355 -1.87135
thorax -12.0909 -0.00321067 -4.05146
lowerneck 4.35995 1.18032 -5.61122
upperneck 8.61651 1.64879 -0.137857
head 1.92441 0.732934 0.908975
rclavicle 2.08724e-014 1.33186e-014
rhumerus 9.14172 11.9911 -92.9163
rradius 22.5631
rwrist 17.9903
rhand -20.5894 13.8174
rfingers 7.12502
rthumb 5.77081 -16.084
lclavicle 2.08724e-014 1.33186e-014
lhumerus 4.13518 -21.1429 88.3741
lradius 37.8939
lwrist -6.04294
lhand -11.5151 -7.67906
lfingers 7.12502
lthumb 14.5243 21.7925
rfemur -30.0193 -0.663016 22.3067
rtibia 35.1093
rfoot 6.62622 -8.89465
rtoes -9.30915
lfemur -33.2836 4.10506 -19.2603
ltibia 47.4476
lfoot 0.861087 -0.0594838
ltoes -11.0506
123
root 22.0966 17.031 0.807068 -15.9577 86.2569 -371.03
lowerback 36.3106 -1.65473 3.72508
upperback 5.22776 -0.252188 -1.85041
thorax -12.3681 0.0116321 -3.93537
lowerneck 4.14153 1.15977 -5.51029
upperneck 7.92516 1.6046 -0.249772
head 1.73926 0.715956 0.85173
rclavicle 1.31198e-014 7.55382e-015
rhumerus 8.67887 7.91776 -94.079
rradius 20.3583
rwrist 20.494
rhand -20.4681 13.3942
rfingers 7.12502
rthumb 5.88788 -16.504
lclavicle 1.31198e-014 7.55382e-015
lhumerus 3.33129 -19.5976 89.1306
lradius 36.113
lwrist -7.63664
lhand -11.5849 -8.02599
lfingers 7.12502
lthumb 14.457 21.4504
rfemur -31.3732 -1.23334 22.4209
rtibia 38.3945
rfoot 3.62686 -7.30896
rtoes -8.8317
lfemur -34.1508 3.90527 -19.3013
ltibia 49.0053
lfoot -1.57662 0.111696
ltoes -9.75375
124
root 22.2701 16.7565 0.812308 -14.9079 86.3855 -369.451
lowerback 37.6195 -1.72639 3.63131
upperback 5.39782 -0.276062 -1.86573
thorax -12.6578 0.0272452 -3.89493
lowerneck 3.85548 1.12148 -5.35219
upperneck 7.22652 1.54217 -0.368129
head 1.56569 0.691175 0.783984
rclavicle 7.15625e-015 -7.35503e-015
rhumerus 8.29275 2.7382 -95.3486
rradius 18.2009
rwrist 23.9651
rhand -20.3868 12.9185
rfingers 7.12502
rthumb 5.96637 -16.9775
lclavicle 7.15625e-015 -7.35503e-015
lhumerus 2.60581 -17.9657 89.7663
lradius 34.3973
lwrist -9.21478
lhand -11.677 -8.3797
lfingers 7.12502
lthumb 14.3682 21.103
rfemur -32.6937 -1.95173 22.5908
rtibia 42.0654
rfoot 0.526187 -5.75415
rtoes -7.83408
lfemur -35.3216 3.73076 -19.3703
ltibia 51.3251
lfoot -4.08151 0.00926076
ltoes -8.80764
125
root 22.4361 16.4948 0.818125 -13.8977 86.4709 -367.889
lowerback 38.9701 -1.78843 3.48908
upperback 5.59829 -0.296127 -1.84982
thorax -12.9083 0.051434 -3.79651
lowerneck 3.48643 1.10243 -5.22536
upperneck 6.50007 1.50876 -0.496707
head 1.3982 0.67998 0.7195
rclavicle -1.08338e-014 1.90833e-014
rhumerus 8.05694 -3.5882 -96.7273
rradius 16.1151
rwrist 28.5591
rhand -20.4959 12.3896
rfingers 7.12502
rthumb 5.86106 -17.5094
lclavicle -1.08338e-014 1.90833e-014
lhumerus 1.94433 -15.8843 90.3959
lradius 32.7348
lwrist -10.7843
lhand -11.6676 -8.74334
lfingers 7.12502
lthumb 14.3773 20.7388
rfemur -33.956 -2.65465 22.7943
rtibia 45.9737
rfoot -2.51547 -4.39867
rtoes -6.3861
lfemur -36.6465 3.67072 -19.4167
ltibia 54.3948
lfoot -6.73904 -0.281858
ltoes -7.79949
126
root 22.5954 16.2449 0.822099 -12.4365 86.5277 -365.961
lowerback 40.2512 -1.85043 3.38027
upperback 5.79666 -0.314399 -1.88432
thorax -13.1197 0.0759241 -3.77204
lowerneck 3.08227 1.07484 -5.0343
upperneck 5.81228 1.47051 -0.650409
head 1.2508 0.667271 0.637528
rclavicle -9.0447e-015 -7.95139e-016
rhumerus 7.71262 -10.3122 -97.9982
rradius 14.6474
rwrist 33.3277
rhand -20.6971 11.5847
rfingers 7.12502
rthumb 5.66684 -18.3195
lclavicle -9.0447e-015 -7.95139e-016
lhumerus 1.13002 -13.7414 90.8675
lradius 31.3578
lwrist -12.0841
lhand -11.8254 -8.77661
lfingers 7.12502
lthumb 14.2253 20.7162
rfemur -35.3614 -3.27764 22.9696
rtibia 49.993
rfoot -5.35337 -3.40912
rtoes -5.33322
lfemur -38.1643 3.68052 -19.4934
ltibia 58.0532
lfoot -9.27445 -0.556138
ltoes -6.88316
127
root 22.7507 16.0061 0.826109 -11.2157 86.5671 -364.321
lowerback 41.508 -1.90512 3.26779
upperback 5.9937 -0.320382 -1.88211
thorax -13.3053 0.107579 -3.71142
lowerneck 2.76851 1.06641 -4.93388
upperneck 5.02626 1.44885 -0.808846
head 1.05816 0.66395 0.568312
rclavicle 1.66979e-014 -1.39149e-014
rhumerus 7.08633 -16.4927 -98.8146
rradius 13.9
rwrist 37.2723
rhand -20.8444 10.7073
rfingers 7.12502
rthumb 5.52456 -19.2007
lclavicle 1.66979e-014 -1.39149e-014
lhumerus 0.13923 -11.2072 91.3457
lradius 30.1969
lwrist -13.2199
lhand -12.1153 -8.61771
lfingers 7.12502
lthumb 13.9458 20.8946
rfemur -36.8777 -3.97354 23.1439
rtibia 54.0424
rfoot -7.90294 -2.65067
rtoes -5.37609
lfemur -39.7684 3.685 -19.5355
ltibia 61.9709
lfoot -11.3477 -0.793678
ltoes -5.95692
